<?xml version="1.0" encoding="UTF-8" standalone="no"?>
<!-- Created with Inkscape (http://www.inkscape.org/) -->

<svg
   width="1119.1154"
   height="969.18237"
   viewBox="0 0 296.09913 256.42951"
   version="1.1"
   id="svg5"
   xml:space="preserve"
   inkscape:version="1.2.2 (b0a8486541, 2022-12-01)"
   sodipodi:docname="logo.svg"
   inkscape:export-filename="../../Blog Branding/chemiclipse-logo.svg"
   inkscape:export-xdpi="96"
   inkscape:export-ydpi="96"
   xmlns:inkscape="http://www.inkscape.org/namespaces/inkscape"
   xmlns:sodipodi="http://sodipodi.sourceforge.net/DTD/sodipodi-0.dtd"
   xmlns="http://www.w3.org/2000/svg"
   xmlns:svg="http://www.w3.org/2000/svg"><sodipodi:namedview
     id="namedview7"
     pagecolor="#505050"
     bordercolor="#ffffff"
     borderopacity="1"
     inkscape:showpageshadow="0"
     inkscape:pageopacity="0"
     inkscape:pagecheckerboard="1"
     inkscape:deskcolor="#505050"
     inkscape:document-units="px"
     showgrid="false"
     inkscape:zoom="0.5"
     inkscape:cx="438"
     inkscape:cy="496"
     inkscape:window-width="1366"
     inkscape:window-height="715"
     inkscape:window-x="0"
     inkscape:window-y="25"
     inkscape:window-maximized="1"
     inkscape:current-layer="layer1" /><defs
     id="defs2" /><g
     inkscape:label="Layer 1"
     inkscape:groupmode="layer"
     id="layer1"
     transform="translate(0.01525925,-14.660252)"
     sodipodi:insensitive="true"><path
       id="path122"
       style="display:inline;fill-opacity:0.00311034;stroke:#ffffff;stroke-width:18.5208;stroke-dasharray:none;stroke-opacity:1"
       d="M 79.356036,23.920652 H 216.71264 L 285.39095,142.87496 216.71264,261.82928 H 79.356035 L 10.677729,142.87496 Z"
       inkscape:label="outer"
       sodipodi:insensitive="true" /><path
       id="path122-7"
       style="display:inline;fill:#ffffff;fill-opacity:1;stroke:none;stroke-width:10.8601;stroke-dasharray:none"
       class="UnoptimicedTransforms"
       inkscape:label="inner"
       d="M 126.93133,45.223585 96.000407,98.797564 126.93184,45.223585 Z m 30.55316,0 -56.37949,97.651385 56.37743,97.65138 h 66.9313 l 21.48137,-37.20651 h -0.16537 l -17.44854,-30.22244 17.44854,-30.22243 h 5.2e-4 l -17.44906,-30.22244 17.44906,-30.222439 h 0.16485 L 224.41373,45.223585 Z m 82.20375,0 21.48137,37.206506 h 0.001 L 239.68928,45.223585 Z m 48.66007,84.279595 -5.2e-4,5.1e-4 7.71994,13.37128 -7.71994,13.37127 5.2e-4,5.2e-4 7.71994,-13.37179 z m -7.63777,13.22916 -0.0827,0.14263 0.0827,0.14262 0.0822,-0.14262 z m -19.54093,60.5875 -21.48137,37.20651 h 0.001 l 21.48137,-37.20651 z"
       transform="matrix(1.0301589,0,0,1.0301589,-27.534476,-4.3089531)"
       sodipodi:insensitive="true" /></g></svg>
